<?xml version="1.0" encoding="UTF-8"?>
<svg xmlns="http://www.w3.org/2000/svg" xmlns:xlink="http://www.w3.org/1999/xlink" width="15px" height="15px" viewBox="0 0 15 15" version="1.1">
<g id="surface1">
<path style="fill:none;stroke-width:2;stroke-linecap:round;stroke-linejoin:round;stroke:rgb(12.54902%,12.54902%,12.54902%);stroke-opacity:1;stroke-miterlimit:10;" d="M 44.116667 2 L 19.866667 2 C 10.016667 2 2.016667 9.983333 2 19.833333 L 2 44.033333 C 2.016667 53.883333 10.016667 61.866667 19.866667 61.866667 L 44.116667 61.866667 C 53.983333 61.866667 61.983333 53.883333 62 44.033333 L 62 19.833333 C 61.983333 9.983333 53.983333 2 44.116667 2 Z M 55.966667 44.033333 C 55.95 50.566667 50.65 55.85 44.116667 55.85 L 19.866667 55.85 C 13.333333 55.85 8.033333 50.566667 8.033333 44.033333 L 8.033333 19.833333 C 8.033333 13.3 13.333333 8.016667 19.866667 8.016667 L 44.116667 8.016667 C 50.65 8.016667 55.95 13.3 55.966667 19.833333 Z M 55.966667 44.033333 " transform="matrix(0.234375,0,0,0.234375,0,0)"/>
<path style="fill:none;stroke-width:2;stroke-linecap:round;stroke-linejoin:round;stroke:rgb(12.54902%,12.54902%,12.54902%);stroke-opacity:1;stroke-miterlimit:10;" d="M 32 16.45 C 23.45 16.466667 16.533333 23.4 16.55 31.95 C 16.55 40.5 23.5 47.416667 32.033333 47.416667 C 40.583333 47.416667 47.516667 40.483333 47.516667 31.933333 C 47.5 23.383333 40.55 16.45 32 16.45 Z M 32 41.4 C 26.783333 41.383333 22.55 37.15 22.566667 31.933333 C 22.566667 26.7 26.8 22.466667 32.033333 22.483333 C 37.25 22.483333 41.483333 26.716667 41.483333 31.933333 C 41.483333 37.166667 37.233333 41.4 32 41.4 Z M 51.266667 16.566667 C 51.266667 18.616667 49.6 20.283333 47.55 20.3 C 45.5 20.3 43.833333 18.633333 43.833333 16.583333 C 43.816667 14.516667 45.483333 12.85 47.55 12.85 C 49.6 12.85 51.266667 14.516667 51.266667 16.566667 Z M 51.266667 16.566667 " transform="matrix(0.234375,0,0,0.234375,0,0)"/>
</g>
</svg>
