<?xml version="1.0" encoding="UTF-8"?>
<svg xmlns="http://www.w3.org/2000/svg" xmlns:xlink="http://www.w3.org/1999/xlink" width="20px" height="20px" viewBox="0 0 20 20" version="1.1">
<path style="fill:#fff;" d="M 17.070312 12.929688 C 16 11.855469 14.703125 11.039062 13.269531 10.546875 C 15.359375 9.113281 16.269531 6.484375 15.519531 4.066406 C 14.769531 1.648438 12.53125 0 10 0 C 7.46875 0 5.230469 1.648438 4.480469 4.066406 C 3.730469 6.484375 4.640625 9.113281 6.730469 10.546875 C 2.703125 11.945312 0.00390625 15.738281 0 20 L 1.558594 20 C 1.558594 15.339844 5.339844 11.558594 10 11.558594 C 14.660156 11.558594 18.441406 15.339844 18.441406 20 L 20 20 C 20.007812 17.347656 18.953125 14.800781 17.070312 12.929688 Z M 5.78125 5.78125 C 5.78125 3.449219 7.667969 1.558594 10 1.558594 C 12.332031 1.558594 14.21875 3.449219 14.21875 5.78125 C 14.21875 8.109375 12.332031 10 10 10 C 7.667969 10 5.78125 8.109375 5.78125 5.78125 Z M 5.78125 5.78125 "/>
</svg>
