<?xml version="1.0" encoding="UTF-8"?>
<svg xmlns="http://www.w3.org/2000/svg" xmlns:xlink="http://www.w3.org/1999/xlink" width="22pt" height="20pt" viewBox="0 0 22 20" version="1.1">
<path style=" stroke:none;fill-rule:evenodd;fill:rgb(16.078431%,15.686275%,17.647059%);fill-opacity:1;" d="M 17.441406 20 C 15.9375 19.992188 14.726562 18.769531 14.730469 17.265625 C 14.738281 15.761719 15.957031 14.550781 17.460938 14.550781 C 18.964844 14.554688 20.179688 15.773438 20.179688 17.277344 C 20.171875 18.785156 18.949219 20 17.441406 20 Z M 17.441406 16.1875 C 16.839844 16.1875 16.351562 16.675781 16.351562 17.277344 C 16.351562 17.878906 16.839844 18.367188 17.441406 18.367188 C 18.042969 18.367188 18.53125 17.878906 18.53125 17.277344 C 18.53125 16.671875 18.042969 16.183594 17.441406 16.183594 Z M 19.191406 13.378906 L 6.378906 13.378906 C 6 13.378906 5.671875 13.121094 5.578125 12.753906 L 2.898438 1.636719 L 0.839844 1.636719 C 0.390625 1.636719 0.0234375 1.269531 0.0234375 0.820312 C 0.0234375 0.367188 0.390625 0.00390625 0.839844 0.00390625 L 3.550781 0.00390625 C 3.929688 0.00390625 4.257812 0.261719 4.351562 0.628906 L 5.089844 3.707031 L 21.191406 3.707031 C 21.441406 3.707031 21.683594 3.820312 21.839844 4.019531 C 21.996094 4.21875 22.050781 4.476562 21.988281 4.722656 L 19.988281 12.761719 C 19.894531 13.125 19.566406 13.378906 19.191406 13.378906 Z M 7.03125 11.746094 L 18.550781 11.746094 L 20.140625 5.34375 L 5.488281 5.34375 Z M 7.480469 20 C 5.976562 19.992188 4.765625 18.769531 4.773438 17.265625 C 4.777344 15.761719 6 14.550781 7.5 14.550781 C 9.003906 14.554688 10.21875 15.773438 10.21875 17.277344 C 10.210938 18.785156 8.988281 20 7.480469 20 Z M 7.480469 16.1875 C 6.878906 16.1875 6.390625 16.675781 6.390625 17.277344 C 6.390625 17.878906 6.878906 18.367188 7.480469 18.367188 C 8.082031 18.367188 8.570312 17.878906 8.570312 17.277344 C 8.570312 16.671875 8.082031 16.183594 7.480469 16.183594 Z M 7.480469 16.1875 "/>
</svg>
