<?xml version="1.0" encoding="UTF-8"?>
<svg xmlns="http://www.w3.org/2000/svg" xmlns:xlink="http://www.w3.org/1999/xlink" width="20pt" height="20pt" viewBox="0 0 20 20" version="1.1">
<g id="surface1">
<path style=" stroke:none;fill-rule:nonzero;fill:rgb(100%,100%,100%);fill-opacity:1;" d="M 2.398438 0.179688 C 1.109375 0.179688 0.0625 1.226562 0.0625 2.519531 C 0.0625 3.808594 1.109375 4.855469 2.398438 4.855469 C 3.691406 4.855469 4.738281 3.808594 4.738281 2.519531 C 4.738281 1.226562 3.691406 0.179688 2.398438 0.179688 Z M 2.398438 0.179688 "/>
<path style=" stroke:none;fill-rule:nonzero;fill:rgb(100%,100%,100%);fill-opacity:1;" d="M 9.96875 0.179688 C 8.679688 0.179688 7.628906 1.226562 7.628906 2.519531 C 7.628906 3.808594 8.679688 4.855469 9.96875 4.855469 C 11.257812 4.855469 12.308594 3.808594 12.308594 2.519531 C 12.308594 1.226562 11.257812 0.179688 9.96875 0.179688 Z M 9.96875 0.179688 "/>
<path style=" stroke:none;fill-rule:nonzero;fill:rgb(100%,100%,100%);fill-opacity:1;" d="M 17.660156 4.855469 C 18.949219 4.855469 20 3.808594 20 2.519531 C 20 1.226562 18.953125 0.179688 17.660156 0.179688 C 16.371094 0.179688 15.324219 1.226562 15.324219 2.519531 C 15.324219 3.808594 16.371094 4.855469 17.660156 4.855469 Z M 17.660156 4.855469 "/>
<path style=" stroke:none;fill-rule:nonzero;fill:rgb(100%,100%,100%);fill-opacity:1;" d="M 2.339844 12.351562 C 3.628906 12.351562 4.679688 11.300781 4.679688 10.011719 C 4.679688 8.722656 3.628906 7.671875 2.339844 7.671875 C 1.050781 7.671875 0 8.722656 0 10.011719 C 0 11.300781 1.050781 12.351562 2.339844 12.351562 Z M 2.339844 12.351562 "/>
<path style=" stroke:none;fill-rule:nonzero;fill:rgb(100%,100%,100%);fill-opacity:1;" d="M 9.910156 12.351562 C 11.199219 12.351562 12.246094 11.300781 12.246094 10.011719 C 12.246094 8.722656 11.199219 7.671875 9.910156 7.671875 C 8.617188 7.671875 7.570312 8.722656 7.570312 10.011719 C 7.570312 11.300781 8.617188 12.351562 9.910156 12.351562 Z M 9.910156 12.351562 "/>
<path style=" stroke:none;fill-rule:nonzero;fill:rgb(100%,100%,100%);fill-opacity:1;" d="M 17.601562 12.351562 C 18.890625 12.351562 19.941406 11.300781 19.941406 10.011719 C 19.941406 8.722656 18.890625 7.671875 17.601562 7.671875 C 16.3125 7.671875 15.261719 8.722656 15.261719 10.011719 C 15.261719 11.300781 16.3125 12.351562 17.601562 12.351562 Z M 17.601562 12.351562 "/>
<path style=" stroke:none;fill-rule:nonzero;fill:rgb(100%,100%,100%);fill-opacity:1;" d="M 2.394531 15.144531 C 1.101562 15.144531 0.0546875 16.191406 0.0546875 17.480469 C 0.0546875 18.773438 1.101562 19.820312 2.394531 19.820312 C 3.683594 19.820312 4.730469 18.773438 4.730469 17.480469 C 4.730469 16.191406 3.683594 15.144531 2.394531 15.144531 Z M 2.394531 15.144531 "/>
<path style=" stroke:none;fill-rule:nonzero;fill:rgb(100%,100%,100%);fill-opacity:1;" d="M 9.960938 15.144531 C 8.671875 15.144531 7.625 16.191406 7.625 17.480469 C 7.625 18.773438 8.671875 19.820312 9.960938 19.820312 C 11.25 19.820312 12.300781 18.773438 12.300781 17.480469 C 12.300781 16.191406 11.25 15.144531 9.960938 15.144531 Z M 9.960938 15.144531 "/>
<path style=" stroke:none;fill-rule:nonzero;fill:rgb(100%,100%,100%);fill-opacity:1;" d="M 17.652344 15.144531 C 16.363281 15.144531 15.316406 16.191406 15.316406 17.480469 C 15.316406 18.773438 16.363281 19.820312 17.652344 19.820312 C 18.945312 19.820312 19.992188 18.773438 19.992188 17.480469 C 19.992188 16.191406 18.941406 15.144531 17.652344 15.144531 Z M 17.652344 15.144531 "/>
</g>
</svg>
