<?xml version="1.0" encoding="UTF-8"?>
<svg xmlns="http://www.w3.org/2000/svg" xmlns:xlink="http://www.w3.org/1999/xlink" width="20pt" height="20pt" viewBox="0 0 20 20" version="1.1">
<path style=" stroke:none;fill-rule:evenodd;fill:rgb(16.078431%,15.686275%,17.647059%);fill-opacity:1;" d="M 19.75 4.589844 C 19.136719 2.550781 17.585938 0.929688 15.578125 0.21875 C 13.871094 -0.378906 11.828125 0.21875 10 1.828125 C 8.171875 0.261719 6.121094 -0.292969 4.421875 0.261719 C 2.429688 0.996094 0.890625 2.609375 0.25 4.632812 C -0.21875 6.199219 -0.261719 8.746094 2.199219 11.847656 C 3.308594 13.246094 5.019531 15.246094 6.421875 16.8125 C 9.101562 19.824219 9.53125 19.992188 9.910156 19.992188 L 10.078125 19.992188 C 10.46875 19.992188 10.851562 19.824219 13.53125 16.769531 C 14.941406 15.15625 16.640625 13.160156 17.75 11.804688 C 20.21875 8.707031 20.21875 6.160156 19.75 4.589844 Z M 16.46875 10.789062 C 14.511719 13.25 11.148438 17.113281 10 18.175781 C 8.851562 17.113281 5.480469 13.25 3.519531 10.789062 C 1.910156 8.796875 1.308594 6.84375 1.820312 5.101562 C 2.289062 3.59375 3.441406 2.398438 4.929688 1.878906 C 6.160156 1.410156 7.828125 2.046875 9.359375 3.53125 C 9.636719 3.820312 10.082031 3.875 10.421875 3.65625 C 10.507812 3.625 10.585938 3.566406 10.640625 3.488281 C 12.171875 2.046875 13.828125 1.410156 15.058594 1.832031 C 16.542969 2.386719 17.6875 3.59375 18.171875 5.101562 C 18.679688 6.800781 18.089844 8.789062 16.46875 10.785156 Z M 16.46875 10.789062 "/>
</svg>
