<?xml version="1.0" encoding="UTF-8"?>
<svg xmlns="http://www.w3.org/2000/svg" xmlns:xlink="http://www.w3.org/1999/xlink" width="20pt" height="20pt" viewBox="0 0 20 20" version="1.1">
<path style=" stroke:none;fill-rule:evenodd;fill:rgb(16.078431%,15.686275%,17.647059%);fill-opacity:1;" d="M 19.890625 18.699219 L 14.078125 12.890625 C 16.742188 9.609375 16.367188 4.816406 13.226562 1.988281 C 10.089844 -0.839844 5.285156 -0.71875 2.296875 2.265625 C -0.695312 5.25 -0.824219 10.054688 2 13.199219 C 4.824219 16.339844 9.613281 16.722656 12.898438 14.066406 L 18.710938 19.878906 C 18.871094 20.042969 19.136719 20.042969 19.300781 19.878906 L 19.890625 19.289062 C 20.050781 19.125 20.050781 18.863281 19.890625 18.699219 Z M 7.929688 14.167969 C 4.476562 14.167969 1.679688 11.367188 1.679688 7.917969 C 1.679688 4.464844 4.476562 1.667969 7.929688 1.667969 C 11.382812 1.667969 14.179688 4.464844 14.179688 7.917969 C 14.175781 11.367188 11.378906 14.160156 7.929688 14.164062 Z M 7.929688 14.167969 "/>
</svg>
